<?xml version="1.0" encoding="UTF-8" standalone="no"?>
<!-- Created with Inkscape (http://www.inkscape.org/) -->

<svg
   width="210mm"
   height="297mm"
   viewBox="0 0 210 297"
   version="1.1"
   id="svg5"
   inkscape:version="1.1.2 (0a00cf5339, 2022-02-04)"
   sodipodi:docname="logo_readme.svg"
   xmlns:inkscape="http://www.inkscape.org/namespaces/inkscape"
   xmlns:sodipodi="http://sodipodi.sourceforge.net/DTD/sodipodi-0.dtd"
   xmlns="http://www.w3.org/2000/svg"
   xmlns:svg="http://www.w3.org/2000/svg">
  <sodipodi:namedview
     id="namedview7"
     pagecolor="#ffffff"
     bordercolor="#666666"
     borderopacity="1.0"
     inkscape:pageshadow="2"
     inkscape:pageopacity="0.0"
     inkscape:pagecheckerboard="0"
     inkscape:document-units="mm"
     showgrid="false"
     showguides="false"
     inkscape:lockguides="true"
     inkscape:guide-bbox="true"
     inkscape:zoom="1.2694837"
     inkscape:cx="-133.51885"
     inkscape:cy="295.00183"
     inkscape:window-width="2560"
     inkscape:window-height="1376"
     inkscape:window-x="0"
     inkscape:window-y="27"
     inkscape:window-maximized="1"
     inkscape:current-layer="layer1"
     inkscape:snap-global="false">
    <sodipodi:guide
       position="44.621515,194.89464"
       orientation="0,-1"
       id="guide3641" />
    <sodipodi:guide
       position="81.805356,176.29089"
       orientation="0,-1"
       id="guide3904" />
    <sodipodi:guide
       position="127.43846,195.97821"
       orientation="0.83404232,-0.55170047"
       id="guide7319" />
    <sodipodi:guide
       position="52.303431,206.16616"
       orientation="0,-1"
       id="guide7674" />
    <sodipodi:guide
       position="34.223649,214.69309"
       orientation="-0.8450597,-0.53467195"
       id="guide8829" />
    <sodipodi:guide
       position="71.370092,185.40048"
       orientation="0,-1"
       id="guide8936" />
    <sodipodi:guide
       position="24.04329,216.65373"
       orientation="0,-1"
       id="guide9242" />
    <sodipodi:guide
       position="124.00783,230.99942"
       orientation="0,-1"
       id="guide9586" />
    <sodipodi:guide
       position="11.359064,240.00223"
       orientation="0,-1"
       id="guide10158" />
    <sodipodi:guide
       position="17.390112,228.61855"
       orientation="1,0"
       id="guide38482" />
  </sodipodi:namedview>
  <defs
     id="defs2" />
  <g
     inkscape:label="Layer 1"
     inkscape:groupmode="layer"
     id="layer1">
    <g
       id="g18899" />
    <g
       id="g38453"
       transform="translate(7.2117111,-8.5654563)"
       inkscape:export-filename="/home/poldi/Doc/Spiele/SciFi/Plane9/images/logo_readme.png"
       inkscape:export-xdpi="200"
       inkscape:export-ydpi="200">
      <path
         id="path1509"
         style="fill:#000000;fill-opacity:1;stroke-width:0.326314"
         d="m 91.626623,61.004735 c -0.24049,-0.26839 -15.15577,-23.6231 -15.23096,-24.45667 0,0 -0.30434,-0.2808 0.21876,-0.81469 0,0 3.85293,-3.30744 4.98779,-4.27968 0.54687,-0.48005 0.18593,-0.73521 -0.23391,-0.8397 -23.54386,0.0707 -23.60405,0.0196 -23.83478,-0.0392 -0.35965,-0.61833 -3.201745,-4.893097 -3.166713,-4.965779 0,0 59.90238,-0.127707 89.76008,0.03121 l -3.31098,5.005439 -22.2233,-0.0116 c -0.58948,-3.1e-4 -0.90618,-0.0362 -1.29122,0.23801 -0.32452,0.30684 -0.35078,0.3434 0.35766,1.07217 1.04523,1.07523 3.27817,3.12758 4.35807,4.17321 l -0.84946,1.53467 c 0,0 -12.6011,20.31203 -14.39759,23.29056 -0.0188,0.0427 -0.35908,0.12649 -0.35908,0.12649 l -14.557307,-0.004 -0.22706,-0.0602 z m 26.190827,-25.26952 -4.97352,-5.08959 c 0,0 -0.68299,-0.77423 -1.64907,-0.85788 -0.39957,-0.0346 -14.070877,0.18527 -22.823747,0.0396 l -3.3828,3.33132 c -1.88679,1.85807 -3.33613,3.62383 -3.34306,3.8033 -0.014,0.36301 1.01084,2.15094 7.65247,13.35041 l 4.56839,7.70347 5.15496,-0.0318 5.127197,0.0481 c 1.10345,-1.63108 9.92332,-15.51482 13.66918,-22.29692 z m -22.859967,20.88713 c -0.27598,-0.22434 -3.03221,-4.77416 -6.12496,-10.1107 l -5.62319,-9.70282 0.65412,-0.90238 c 0.35977,-0.49631 1.65624,-1.85685 2.88104,-3.02341 l 2.18147,-1.97012 8.43012,0.0122 7.584097,0.0635 c 0.9223,0.008 0.81795,0.27758 0.52745,1.02281 -0.13335,0.34208 -4.21465,6.81461 -4.34158,7.17957 -0.12348,0.35508 -0.73625,0.28975 -3.111227,0.30915 -1.69937,0.0139 -8.81716,-0.0591 -9.0387,0.22777 -0.24255,0.31411 1.97335,4.48528 6.57471,12.49771 1.31681,2.29298 2.3942,4.31204 2.3942,4.4868 0,0.46207 -2.39721,0.38974 -2.98755,-0.0901 z m 5.809437,-0.81579 c -2.097987,-3.30485 -7.368207,-12.23816 -7.716597,-13.40124 0,0 1.13137,-0.44828 1.99349,-0.35121 0.58075,0.003 1.25321,0.26456 1.25321,0.26456 1.51489,1.36235 5.085417,10.59257 6.724477,8.81736 0.58072,-0.64169 0.55687,-0.73593 -0.9729,-3.84508 0,0 -1.54278,-2.97675 -1.56821,-3.18728 0.10528,-0.30551 3.78628,-6.52523 3.78628,-6.52523 0,0 2.87268,-4.98276 3.83055,-6.16001 0,0 0.32765,-0.44616 1.1833,-0.43427 0.79842,0.21116 1.47658,0.15939 3.65779,2.16018 l 2.05271,1.93348 c 0.5771,0.54359 0.57828,1.42203 0.50282,1.64625 -4.07216,7.3208 -10.36481,17.29122 -12.00148,19.9856 -0.16503,0.19383 -0.43845,0.32056 -0.97432,0.32056 -0.77022,0 -1.13702,-0.25632 -1.75112,-1.22368 z m 7.09189,5.2087 2.96182,-4.4697 h 12.86304 l -2.79159,4.41255 z m 3.78466,-5.89984 2.93342,-4.43465 c 0,0 7.73688,0.0525 12.98621,0 l -2.93342,4.43465 c -1.57555,0.15808 -12.98621,0 -12.98621,0 z m 3.84187,-5.89036 3.19114,-4.74191 13.04402,-0.0533 -3.19863,4.80147 z m 4.01373,-5.98548 3.12691,-4.72716 12.96831,0.0271 -3.06508,4.69463 c -3.19642,0 -13.03014,0.006 -13.03014,0.006 z m 3.872,-5.85355 0.8943,-1.35198 -3.86914,-3.8198 19.37102,0.0167 -3.38814,5.12206 z"
         sodipodi:nodetypes="cccccccccscscccccccscsssccccscscscccssssssscscscccccccccscccccsccssccccccccssccccssccccccc"
         inkscape:export-filename="/home/poldi/Doc/Spiele/SciFi/Plane9/images/logo.png"
         inkscape:export-xdpi="200"
         inkscape:export-ydpi="200" />
      <g
         id="g33610"
         transform="matrix(0.55556689,0,0,0.55556689,23.913806,31.863805)"
         inkscape:export-filename="/home/poldi/Doc/Spiele/SciFi/Plane9/images/logo.png"
         inkscape:export-xdpi="200"
         inkscape:export-ydpi="200">
        <path
           id="path33276"
           style="fill:#000000;fill-opacity:1;stroke-width:0.587354"
           d="m 340.13086,167.98633 19.33406,30.46654 88.32219,-0.0603 -19.26164,-30.5385 z"
           transform="scale(0.26458333)"
           sodipodi:nodetypes="ccccc" />
      </g>
      <path
         d="m 86.028143,55.164105 -2.82001,-4.44383 c 0,0 -7.8503,0.0617 -13.09962,0.009 l 2.93342,4.43465 c 1.57555,0.15808 12.98621,0 12.98621,0 z"
         style="fill:#000000;fill-opacity:1;stroke-width:0.0863373"
         id="path34127"
         sodipodi:nodetypes="ccccc"
         inkscape:export-filename="/home/poldi/Doc/Spiele/SciFi/Plane9/images/logo.png"
         inkscape:export-xdpi="200"
         inkscape:export-ydpi="200" />
      <path
         d="m 82.322593,49.228495 -3.07849,-4.79955 -13.00746,0.005 3.19863,4.80147 z"
         style="fill:#000000;fill-opacity:1;stroke-width:0.0863373"
         id="path34247"
         sodipodi:nodetypes="ccccc"
         inkscape:export-filename="/home/poldi/Doc/Spiele/SciFi/Plane9/images/logo.png"
         inkscape:export-xdpi="200"
         inkscape:export-ydpi="200" />
      <path
         d="m 78.585123,43.311895 -3.05296,-4.7344 -13.04225,0.0343 3.06507,4.69463 c 3.19642,0 12.97343,0.005 12.97343,0.005 z"
         style="fill:#000000;fill-opacity:1;stroke-width:0.0863373"
         id="path34463"
         sodipodi:nodetypes="cccccc"
         inkscape:export-filename="/home/poldi/Doc/Spiele/SciFi/Plane9/images/logo.png"
         inkscape:export-xdpi="200"
         inkscape:export-ydpi="200" />
      <path
         d="m 74.796333,37.372175 -0.8943,-1.35198 3.86914,-3.81981 -19.37102,0.0167 3.38814,5.12207 z"
         style="fill:#000000;fill-opacity:1;stroke-width:0.0863373"
         id="path34650"
         inkscape:export-filename="/home/poldi/Doc/Spiele/SciFi/Plane9/images/logo.png"
         inkscape:export-xdpi="200"
         inkscape:export-ydpi="200" />
    </g>
    <path
       style="fill:none;stroke:#000000;stroke-width:0.565;stroke-linecap:butt;stroke-linejoin:miter;stroke-opacity:1;stroke-miterlimit:4;stroke-dasharray:none"
       d="m 17.27467,14.509675 c 178.23456,0 178.47588,0 178.47588,0"
       id="path38364"
       inkscape:export-filename="/home/poldi/Doc/Spiele/SciFi/Plane9/images/logo_readme.png"
       inkscape:export-xdpi="200"
       inkscape:export-ydpi="200" />
    <path
       style="fill:none;stroke:#000000;stroke-width:0.565;stroke-linecap:butt;stroke-linejoin:miter;stroke-opacity:1;stroke-miterlimit:4;stroke-dasharray:none"
       d="m 17.301238,55.678176 c 178.234572,0 178.475892,0 178.475892,0"
       id="path38364-3"
       inkscape:export-filename="/home/poldi/Doc/Spiele/SciFi/Plane9/images/logo_readme.png"
       inkscape:export-xdpi="200"
       inkscape:export-ydpi="200" />
  </g>
</svg>
