<?xml version="1.0" encoding="UTF-8" standalone="no"?>
<!-- Created with Inkscape (http://www.inkscape.org/) -->

<svg
   width="210mm"
   height="297mm"
   viewBox="0 0 210 297"
   version="1.1"
   id="svg5"
   inkscape:version="1.1.2 (0a00cf5339, 2022-02-04)"
   sodipodi:docname="logo.svg"
   xmlns:inkscape="http://www.inkscape.org/namespaces/inkscape"
   xmlns:sodipodi="http://sodipodi.sourceforge.net/DTD/sodipodi-0.dtd"
   xmlns="http://www.w3.org/2000/svg"
   xmlns:svg="http://www.w3.org/2000/svg">
  <sodipodi:namedview
     id="namedview7"
     pagecolor="#ffffff"
     bordercolor="#666666"
     borderopacity="1.0"
     inkscape:pageshadow="2"
     inkscape:pageopacity="0.0"
     inkscape:pagecheckerboard="0"
     inkscape:document-units="mm"
     showgrid="false"
     showguides="false"
     inkscape:lockguides="true"
     inkscape:guide-bbox="true"
     inkscape:zoom="0.44883025"
     inkscape:cx="-163.01232"
     inkscape:cy="272.04955"
     inkscape:window-width="2560"
     inkscape:window-height="1376"
     inkscape:window-x="0"
     inkscape:window-y="27"
     inkscape:window-maximized="1"
     inkscape:current-layer="layer1"
     inkscape:snap-global="false">
    <sodipodi:guide
       position="44.621515,194.89464"
       orientation="0,-1"
       id="guide3641" />
    <sodipodi:guide
       position="81.805356,176.29089"
       orientation="0,-1"
       id="guide3904" />
    <sodipodi:guide
       position="127.43846,195.97821"
       orientation="0.83404232,-0.55170047"
       id="guide7319" />
    <sodipodi:guide
       position="52.303431,206.16616"
       orientation="0,-1"
       id="guide7674" />
    <sodipodi:guide
       position="34.223649,214.69309"
       orientation="-0.8450597,-0.53467195"
       id="guide8829" />
    <sodipodi:guide
       position="71.370092,185.40048"
       orientation="0,-1"
       id="guide8936" />
    <sodipodi:guide
       position="24.04329,216.65373"
       orientation="0,-1"
       id="guide9242" />
    <sodipodi:guide
       position="124.00783,230.99942"
       orientation="0,-1"
       id="guide9586" />
    <sodipodi:guide
       position="11.359064,240.00223"
       orientation="0,-1"
       id="guide10158" />
  </sodipodi:namedview>
  <defs
     id="defs2" />
  <g
     inkscape:label="Layer 1"
     inkscape:groupmode="layer"
     id="layer1">
    <g
       id="g18899" />
    <path
       id="path1509"
       style="fill:#000000;fill-opacity:1;stroke-width:0.587353"
       d="m 93.256775,134.47941 c -0.43287,-0.48309 -27.279827,-42.520709 -27.415153,-44.021103 0,0 -0.547802,-0.505435 0.39376,-1.466402 0,0 6.935128,-5.953287 8.977837,-7.703268 0.984346,-0.864086 0.33467,-1.323355 -0.421027,-1.511436 -42.378087,0.12731 -42.486423,0.03533 -42.901734,-0.07063 -0.647359,-1.112969 -5.763027,-8.807395 -5.699969,-8.93822 0,0 107.822081,-0.229869 161.564851,0.05618 l -5.95965,9.0096 -40.00111,-0.02093 c -1.06105,-5.55e-4 -1.63109,-0.06511 -2.32415,0.428406 -0.58413,0.552305 -0.63139,0.618107 0.64377,1.929869 1.88138,1.935369 5.90058,5.629525 7.84437,7.51163 l -1.529,2.762351 c 0,0 -22.68151,36.560893 -25.91513,41.922143 -0.0338,0.0768 -0.64633,0.22768 -0.64633,0.22768 l -26.202627,-0.008 -0.408708,-0.10835 z m 47.142535,-45.484196 -8.95214,-9.16108 c 0,0 -1.22937,-1.393578 -2.96828,-1.544145 -0.71921,-0.06227 -25.32707,0.333475 -41.081899,0.07124 l -6.088927,5.996244 c -3.396151,3.344454 -6.00491,6.52277 -6.017372,6.84581 -0.02521,0.6534 1.81947,3.8716 13.774148,24.030237 l 8.222935,13.86597 9.278745,-0.0572 9.22877,0.0866 c 1.98617,-2.9359 17.86162,-27.92612 24.60402,-40.133646 z M 99.252204,126.59127 c -0.496747,-0.40379 -5.457867,-8.5933 -11.024705,-18.19889 L 78.10597,90.927663 l 1.177395,-1.62425 c 0.647568,-0.89333 2.981161,-3.34225 5.185759,-5.44203 l 3.926573,-3.546141 15.173903,0.02203 13.65111,0.114341 c 1.6601,0.01391 1.47228,0.499637 0.94939,1.841013 -0.24003,0.615735 -7.58623,12.266061 -7.81469,12.922976 -0.22227,0.639125 -1.32522,0.521528 -5.60011,0.556445 -3.0588,0.02499 -15.870563,-0.106407 -16.269319,0.409985 -0.436588,0.565385 3.551949,8.073338 11.834229,22.495408 2.37021,4.12729 4.30947,7.76153 4.30947,8.07609 0,0.83171 -4.31488,0.70152 -5.377476,-0.16226 z m 10.456786,-1.46838 c -3.7763,-5.94862 -13.262515,-22.02825 -13.889596,-24.12174 0,0 2.036422,-0.8069 3.588208,-0.63217 1.045328,0.005 2.255738,0.47619 2.255738,0.47619 2.72674,2.45218 9.15356,19.06625 12.10381,15.87093 1.04527,-1.15501 1.00235,-1.32465 -1.75119,-6.92101 0,0 -2.77695,-5.35804 -2.82272,-5.73698 0.18951,-0.54991 6.81516,-11.745177 6.81516,-11.745177 0,0 5.17072,-8.968779 6.89486,-11.087789 0,0 0.58976,-0.803066 2.1299,-0.781661 1.43712,0.380073 2.65778,0.28688 6.58389,3.88823 l 3.69479,3.480201 c 1.03876,0.978434 1.04088,2.559599 0.90506,2.963193 -7.32974,13.177173 -18.65628,31.123553 -21.60223,35.973333 -0.29704,0.3489 -0.78919,0.577 -1.75373,0.577 -1.38637,0 -2.0466,-0.46137 -3.15195,-2.20258 z m 12.76513,9.37547 5.33117,-8.0453 h 23.15301 l -5.02476,7.94243 z m 6.81225,-10.6195 5.28006,-7.98221 c 0,0 13.9261,0.0945 23.3747,0 l -5.28006,7.98221 c -2.83593,0.28454 -23.3747,0 -23.3747,0 z m 6.91523,-10.60243 5.74394,-8.53527 23.47875,-0.0959 -5.75742,8.64247 z m 7.22457,-10.77364 5.62833,-8.508716 23.34247,0.04872 -5.51702,8.450166 c -5.75344,0 -23.45378,0.01 -23.45378,0.01 z m 6.96945,-10.536184 1.60971,-2.433506 -6.96431,-6.875516 34.86712,0.03008 -6.09852,9.21953 z"
       sodipodi:nodetypes="cccccccccscscccccccscsssccccscscscccssssssscscscccccccccscccccsccssccccccccssccccssccccccc"
       inkscape:export-filename="/home/poldi/Doc/Spiele/SciFi/Plane9/images/logo.png"
       inkscape:export-xdpi="200"
       inkscape:export-ydpi="200" />
    <g
       id="g33610"
       transform="translate(-28.6238,82.026804)"
       inkscape:export-filename="/home/poldi/Doc/Spiele/SciFi/Plane9/images/logo.png"
       inkscape:export-xdpi="200"
       inkscape:export-ydpi="200">
      <path
         id="path33276"
         style="fill:#000000;fill-opacity:1;stroke-width:0.587354"
         d="m 340.13086,167.98633 19.33406,30.46654 88.32219,-0.0603 -19.26164,-30.5385 z"
         transform="scale(0.26458333)"
         sodipodi:nodetypes="ccccc" />
    </g>
    <path
       d="m 83.179728,123.9665 -5.075923,-7.99873 c 0,0 -14.130238,0.11103 -23.578838,0.0165 l 5.28006,7.9822 c 2.83593,0.28455 23.374701,0 23.374701,0 z"
       style="fill:#000000;fill-opacity:1;stroke-width:0.155404"
       id="path34127"
       sodipodi:nodetypes="ccccc"
       inkscape:export-filename="/home/poldi/Doc/Spiele/SciFi/Plane9/images/logo.png"
       inkscape:export-xdpi="200"
       inkscape:export-ydpi="200" />
    <path
       d="m 76.509867,113.28261 -5.541171,-8.639 -23.412938,0.009 5.75741,8.64247 z"
       style="fill:#000000;fill-opacity:1;stroke-width:0.155404"
       id="path34247"
       sodipodi:nodetypes="ccccc"
       inkscape:export-filename="/home/poldi/Doc/Spiele/SciFi/Plane9/images/logo.png"
       inkscape:export-xdpi="200"
       inkscape:export-ydpi="200" />
    <path
       d="m 69.78257,102.63295 -5.49523,-8.521743 -23.47557,0.06175 5.51702,8.450163 c 5.75344,0 23.35169,0.009 23.35169,0.009 z"
       style="fill:#000000;fill-opacity:1;stroke-width:0.155404"
       id="path34463"
       sodipodi:nodetypes="cccccc"
       inkscape:export-filename="/home/poldi/Doc/Spiele/SciFi/Plane9/images/logo.png"
       inkscape:export-xdpi="200"
       inkscape:export-ydpi="200" />
    <path
       d="m 62.962883,91.941671 -1.60971,-2.433505 6.96431,-6.875519 -34.867123,0.03008 6.098523,9.219531 z"
       style="fill:#000000;fill-opacity:1;stroke-width:0.155404"
       id="path34650"
       inkscape:export-filename="/home/poldi/Doc/Spiele/SciFi/Plane9/images/logo.png"
       inkscape:export-xdpi="200"
       inkscape:export-ydpi="200" />
  </g>
</svg>
